<svg height="252.19999999999982" width="363" viewBox="0 0 363 254.2" xmlns="http://www.w3.org/2000/svg" version="1.1"><defs></defs> <rect fill="none" height="252.19999999999982" width="363" y="0" x="0"></rect><g transform="translate(10 10) rotate(0 31.5 31.5)" stroke-linecap="round" fill-opacity="0.9" stroke-opacity="0.9"><path fill="none" stroke-width="1" stroke="#ffffff" d="M63 31.5 C63 33.32, 62.84 35.17, 62.52 36.97 C62.2 38.77, 61.72 40.56, 61.1 42.27 C60.48 43.99, 59.69 45.67, 58.78 47.25 C57.87 48.83, 56.8 50.35, 55.63 51.75 C54.46 53.14, 53.14 54.46, 51.75 55.63 C50.35 56.8, 48.83 57.87, 47.25 58.78 C45.67 59.69, 43.99 60.48, 42.27 61.1 C40.56 61.72, 38.77 62.2, 36.97 62.52 C35.17 62.84, 33.32 63, 31.5 63 C29.68 63, 27.83 62.84, 26.03 62.52 C24.23 62.2, 22.44 61.72, 20.73 61.1 C19.01 60.48, 17.33 59.69, 15.75 58.78 C14.17 57.87, 12.65 56.8, 11.25 55.63 C9.86 54.46, 8.54 53.14, 7.37 51.75 C6.2 50.35, 5.13 48.83, 4.22 47.25 C3.31 45.67, 2.52 43.99, 1.9 42.27 C1.28 40.56, 0.8 38.77, 0.48 36.97 C0.16 35.17, 0 33.32, 0 31.5 C0 29.68, 0.16 27.83, 0.48 26.03 C0.8 24.23, 1.28 22.44, 1.9 20.73 C2.52 19.01, 3.31 17.33, 4.22 15.75 C5.13 14.17, 6.2 12.65, 7.37 11.25 C8.54 9.86, 9.86 8.54, 11.25 7.37 C12.65 6.2, 14.17 5.13, 15.75 4.22 C17.33 3.31, 19.01 2.52, 20.73 1.9 C22.44 1.28, 24.23 0.8, 26.03 0.48 C27.83 0.16, 29.68 0, 31.5 0 C33.32 0, 35.17 0.16, 36.97 0.48 C38.77 0.8, 40.56 1.28, 42.27 1.9 C43.99 2.52, 45.67 3.31, 47.25 4.22 C48.83 5.13, 50.35 6.2, 51.75 7.37 C53.14 8.54, 54.46 9.86, 55.63 11.25 C56.8 12.65, 57.87 14.17, 58.78 15.75 C59.69 17.33, 60.48 19.01, 61.1 20.73 C61.72 22.44, 62.2 24.23, 62.52 26.03 C62.84 27.83, 62.92 30.59, 63 31.5 C63.08 32.41, 63.08 30.59, 63 31.5"></path></g><g transform="translate(30 50) rotate(0 9.337890625 16.09999999999991)" fill-opacity="0.9" stroke-opacity="0.9"><text direction="ltr" text-anchor="start" fill="#ffffff" font-size="28px" font-family="Helvetica, Segoe UI Emoji" y="0" x="0" style="white-space: pre;">A</text></g><g transform="translate(10 170) rotate(0 31.5 31.5)" stroke-linecap="round" fill-opacity="0.9" stroke-opacity="0.9"><path fill="none" stroke-width="1" stroke="#ffffff" d="M63 31.5 C63 33.32, 62.84 35.17, 62.52 36.97 C62.2 38.77, 61.72 40.56, 61.1 42.27 C60.48 43.99, 59.69 45.67, 58.78 47.25 C57.87 48.83, 56.8 50.35, 55.63 51.75 C54.46 53.14, 53.14 54.46, 51.75 55.63 C50.35 56.8, 48.83 57.87, 47.25 58.78 C45.67 59.69, 43.99 60.48, 42.27 61.1 C40.56 61.72, 38.77 62.2, 36.97 62.52 C35.17 62.84, 33.32 63, 31.5 63 C29.68 63, 27.83 62.84, 26.03 62.52 C24.23 62.2, 22.44 61.72, 20.73 61.1 C19.01 60.48, 17.33 59.69, 15.75 58.78 C14.17 57.87, 12.65 56.8, 11.25 55.63 C9.86 54.46, 8.54 53.14, 7.37 51.75 C6.2 50.35, 5.13 48.83, 4.22 47.25 C3.31 45.67, 2.52 43.99, 1.9 42.27 C1.28 40.56, 0.8 38.77, 0.48 36.97 C0.16 35.17, 0 33.32, 0 31.5 C0 29.68, 0.16 27.83, 0.48 26.03 C0.8 24.23, 1.28 22.44, 1.9 20.73 C2.52 19.01, 3.31 17.33, 4.22 15.75 C5.13 14.17, 6.2 12.65, 7.37 11.25 C8.54 9.86, 9.86 8.54, 11.25 7.37 C12.65 6.2, 14.17 5.13, 15.75 4.22 C17.33 3.31, 19.01 2.52, 20.73 1.9 C22.44 1.28, 24.23 0.8, 26.03 0.48 C27.83 0.16, 29.68 0, 31.5 0 C33.32 0, 35.17 0.16, 36.97 0.48 C38.77 0.8, 40.56 1.28, 42.27 1.9 C43.99 2.52, 45.67 3.31, 47.25 4.22 C48.83 5.13, 50.35 6.2, 51.75 7.37 C53.14 8.54, 54.46 9.86, 55.63 11.25 C56.8 12.65, 57.87 14.17, 58.78 15.75 C59.69 17.33, 60.48 19.01, 61.1 20.73 C61.72 22.44, 62.2 24.23, 62.52 26.03 C62.84 27.83, 62.92 30.59, 63 31.5 C63.08 32.41, 63.08 30.59, 63 31.5"></path></g><g transform="translate(30 210) rotate(0 9.337890625 16.09999999999991)" fill-opacity="0.9" stroke-opacity="0.9"><text direction="ltr" text-anchor="start" fill="#ffffff" font-size="28px" font-family="Helvetica, Segoe UI Emoji" y="0" x="0" style="white-space: pre;">B</text></g><g transform="translate(170 10) rotate(0 31.5 31.5)" stroke-linecap="round" fill-opacity="0.9" stroke-opacity="0.9"><path fill="none" stroke-width="1" stroke="#ffffff" d="M63 31.5 C63 33.32, 62.84 35.17, 62.52 36.97 C62.2 38.77, 61.72 40.56, 61.1 42.27 C60.48 43.99, 59.69 45.67, 58.78 47.25 C57.87 48.83, 56.8 50.35, 55.63 51.75 C54.46 53.14, 53.14 54.46, 51.75 55.63 C50.35 56.8, 48.83 57.87, 47.25 58.78 C45.67 59.69, 43.99 60.48, 42.27 61.1 C40.56 61.72, 38.77 62.2, 36.97 62.52 C35.17 62.84, 33.32 63, 31.5 63 C29.68 63, 27.83 62.84, 26.03 62.52 C24.23 62.2, 22.44 61.72, 20.73 61.1 C19.01 60.48, 17.33 59.69, 15.75 58.78 C14.17 57.87, 12.65 56.8, 11.25 55.63 C9.86 54.46, 8.54 53.14, 7.37 51.75 C6.2 50.35, 5.13 48.83, 4.22 47.25 C3.31 45.67, 2.52 43.99, 1.9 42.27 C1.28 40.56, 0.8 38.77, 0.48 36.97 C0.16 35.17, 0 33.32, 0 31.5 C0 29.68, 0.16 27.83, 0.48 26.03 C0.8 24.23, 1.28 22.44, 1.9 20.73 C2.52 19.01, 3.31 17.33, 4.22 15.75 C5.13 14.17, 6.2 12.65, 7.37 11.25 C8.54 9.86, 9.86 8.54, 11.25 7.37 C12.65 6.2, 14.17 5.13, 15.75 4.22 C17.33 3.31, 19.01 2.52, 20.73 1.9 C22.44 1.28, 24.23 0.8, 26.03 0.48 C27.83 0.16, 29.68 0, 31.5 0 C33.32 0, 35.17 0.16, 36.97 0.48 C38.77 0.8, 40.56 1.28, 42.27 1.9 C43.99 2.52, 45.67 3.31, 47.25 4.22 C48.83 5.13, 50.35 6.2, 51.75 7.37 C53.14 8.54, 54.46 9.86, 55.63 11.25 C56.8 12.65, 57.87 14.17, 58.78 15.75 C59.69 17.33, 60.48 19.01, 61.1 20.73 C61.72 22.44, 62.2 24.23, 62.52 26.03 C62.84 27.83, 62.92 30.59, 63 31.5 C63.08 32.41, 63.08 30.59, 63 31.5"></path></g><g transform="translate(190 50) rotate(0 10.1103515625 16.09999999999991)" fill-opacity="0.9" stroke-opacity="0.9"><text direction="ltr" text-anchor="start" fill="#ffffff" font-size="28px" font-family="Helvetica, Segoe UI Emoji" y="0" x="0" style="white-space: pre;">C</text></g><g transform="translate(170 170) rotate(0 31.5 31.5)" stroke-linecap="round" fill-opacity="0.9" stroke-opacity="0.9"><path fill="none" stroke-width="1" stroke="#ffffff" d="M63 31.5 C63 33.32, 62.84 35.17, 62.52 36.97 C62.2 38.77, 61.72 40.56, 61.1 42.27 C60.48 43.99, 59.69 45.67, 58.78 47.25 C57.87 48.83, 56.8 50.35, 55.63 51.75 C54.46 53.14, 53.14 54.46, 51.75 55.63 C50.35 56.8, 48.83 57.87, 47.25 58.78 C45.67 59.69, 43.99 60.48, 42.27 61.1 C40.56 61.72, 38.77 62.2, 36.97 62.52 C35.17 62.84, 33.32 63, 31.5 63 C29.68 63, 27.83 62.84, 26.03 62.52 C24.23 62.2, 22.44 61.72, 20.73 61.1 C19.01 60.48, 17.33 59.69, 15.75 58.78 C14.17 57.87, 12.65 56.8, 11.25 55.63 C9.86 54.46, 8.54 53.14, 7.37 51.75 C6.2 50.35, 5.13 48.83, 4.22 47.25 C3.31 45.67, 2.52 43.99, 1.9 42.27 C1.28 40.56, 0.8 38.77, 0.48 36.97 C0.16 35.17, 0 33.32, 0 31.5 C0 29.68, 0.16 27.83, 0.48 26.03 C0.8 24.23, 1.28 22.44, 1.9 20.73 C2.52 19.01, 3.31 17.33, 4.22 15.75 C5.13 14.17, 6.2 12.65, 7.37 11.25 C8.54 9.86, 9.86 8.54, 11.25 7.37 C12.65 6.2, 14.17 5.13, 15.75 4.22 C17.33 3.31, 19.01 2.52, 20.73 1.9 C22.44 1.28, 24.23 0.8, 26.03 0.48 C27.83 0.16, 29.68 0, 31.5 0 C33.32 0, 35.17 0.16, 36.97 0.48 C38.77 0.8, 40.56 1.28, 42.27 1.9 C43.99 2.52, 45.67 3.31, 47.25 4.22 C48.83 5.13, 50.35 6.2, 51.75 7.37 C53.14 8.54, 54.46 9.86, 55.63 11.25 C56.8 12.65, 57.87 14.17, 58.78 15.75 C59.69 17.33, 60.48 19.01, 61.1 20.73 C61.72 22.44, 62.2 24.23, 62.52 26.03 C62.84 27.83, 62.92 30.59, 63 31.5 C63.08 32.41, 63.08 30.59, 63 31.5"></path></g><g transform="translate(190 210) rotate(0 10.1103515625 16.09999999999991)" fill-opacity="0.9" stroke-opacity="0.9"><text direction="ltr" text-anchor="start" fill="#ffffff" font-size="28px" font-family="Helvetica, Segoe UI Emoji" y="0" x="0" style="white-space: pre;">D</text></g><g transform="translate(290 90) rotate(0 31.5 31.5)" stroke-linecap="round" fill-opacity="0.9" stroke-opacity="0.9"><path fill="none" stroke-width="1" stroke="#ffffff" d="M63 31.5 C63 33.32, 62.84 35.17, 62.52 36.97 C62.2 38.77, 61.72 40.56, 61.1 42.27 C60.48 43.99, 59.69 45.67, 58.78 47.25 C57.87 48.83, 56.8 50.35, 55.63 51.75 C54.46 53.14, 53.14 54.46, 51.75 55.63 C50.35 56.8, 48.83 57.87, 47.25 58.78 C45.67 59.69, 43.99 60.48, 42.27 61.1 C40.56 61.72, 38.77 62.2, 36.97 62.52 C35.17 62.84, 33.32 63, 31.5 63 C29.68 63, 27.83 62.84, 26.03 62.52 C24.23 62.2, 22.44 61.72, 20.73 61.1 C19.01 60.48, 17.33 59.69, 15.75 58.78 C14.17 57.87, 12.65 56.8, 11.25 55.63 C9.86 54.46, 8.54 53.14, 7.37 51.75 C6.2 50.35, 5.13 48.83, 4.22 47.25 C3.31 45.67, 2.52 43.99, 1.9 42.27 C1.28 40.56, 0.8 38.77, 0.48 36.97 C0.16 35.17, 0 33.32, 0 31.5 C0 29.68, 0.16 27.83, 0.48 26.03 C0.8 24.23, 1.28 22.44, 1.9 20.73 C2.52 19.01, 3.31 17.33, 4.22 15.75 C5.13 14.17, 6.2 12.65, 7.37 11.25 C8.54 9.86, 9.86 8.54, 11.25 7.37 C12.65 6.2, 14.17 5.13, 15.75 4.22 C17.33 3.31, 19.01 2.52, 20.73 1.9 C22.44 1.28, 24.23 0.8, 26.03 0.48 C27.83 0.16, 29.68 0, 31.5 0 C33.32 0, 35.17 0.16, 36.97 0.48 C38.77 0.8, 40.56 1.28, 42.27 1.9 C43.99 2.52, 45.67 3.31, 47.25 4.22 C48.83 5.13, 50.35 6.2, 51.75 7.37 C53.14 8.54, 54.46 9.86, 55.63 11.25 C56.8 12.65, 57.87 14.17, 58.78 15.75 C59.69 17.33, 60.48 19.01, 61.1 20.73 C61.72 22.44, 62.2 24.23, 62.52 26.03 C62.84 27.83, 62.92 30.59, 63 31.5 C63.08 32.41, 63.08 30.59, 63 31.5"></path></g><g transform="translate(310 130) rotate(0 9.337890625 16.09999999999991)" fill-opacity="0.9" stroke-opacity="0.9"><text direction="ltr" text-anchor="start" fill="#ffffff" font-size="28px" font-family="Helvetica, Segoe UI Emoji" y="0" x="0" style="white-space: pre;">E</text></g><g stroke-linecap="round"><g transform="translate(70 50) rotate(0 50 0)" fill-opacity="0.9" stroke-opacity="0.9"><path fill="none" stroke-width="2" stroke="#ffffff" d="M0 0 C16.67 0, 83.33 0, 100 0 M0 0 C16.67 0, 83.33 0, 100 0"></path></g></g><mask></mask><g stroke-linecap="round"><g transform="translate(50 70) rotate(0 0 50)" fill-opacity="0.9" stroke-opacity="0.9"><path fill="none" stroke-width="2" stroke="#ffffff" d="M0 0 C0 16.67, 0 83.33, 0 100 M0 0 C0 16.67, 0 83.33, 0 100"></path></g></g><mask></mask><g stroke-linecap="round"><g transform="translate(70 190) rotate(0 50 0)" fill-opacity="0.9" stroke-opacity="0.9"><path fill="none" stroke-width="2" stroke="#ffffff" d="M0 0 C16.67 0, 83.33 0, 100 0 M0 0 C16.67 0, 83.33 0, 100 0"></path></g></g><mask></mask><g stroke-linecap="round"><g transform="translate(190 70) rotate(0 0 50)" fill-opacity="0.9" stroke-opacity="0.9"><path fill="none" stroke-width="2" stroke="#ffffff" d="M0 0 C0 16.67, 0 83.33, 0 100 M0 0 C0 16.67, 0 83.33, 0 100"></path></g></g><mask></mask><g stroke-linecap="round"><g transform="translate(230 190) rotate(0 40 -20)" fill-opacity="0.9" stroke-opacity="0.9"><path fill="none" stroke-width="2" stroke="#ffffff" d="M0 0 C13.33 -6.67, 66.67 -33.33, 80 -40 M0 0 C13.33 -6.67, 66.67 -33.33, 80 -40"></path></g></g><mask></mask><g stroke-linecap="round"><g transform="translate(230 50) rotate(0 40 20)" fill-opacity="0.9" stroke-opacity="0.9"><path fill="none" stroke-width="2" stroke="#ffffff" d="M0 0 C13.33 6.67, 66.67 33.33, 80 40 M0 0 C13.33 6.67, 66.67 33.33, 80 40"></path></g></g><mask></mask><g transform="translate(110 130) rotate(0 5.5615234375 11.5)" fill-opacity="0.9" stroke-opacity="0.9"><text direction="ltr" text-anchor="start" fill="#ffffff" font-size="20px" font-family="Helvetica, Segoe UI Emoji" y="0" x="0" style="white-space: pre;">3</text></g><g transform="translate(30 130) rotate(0 5.5615234375 11.5)" fill-opacity="0.9" stroke-opacity="0.9"><text direction="ltr" text-anchor="start" fill="#ffffff" font-size="20px" font-family="Helvetica, Segoe UI Emoji" y="0" x="0" style="white-space: pre;">2</text></g><g transform="translate(110 50) rotate(0 5.5615234375 11.5)" fill-opacity="0.9" stroke-opacity="0.9"><text direction="ltr" text-anchor="start" fill="#ffffff" font-size="20px" font-family="Helvetica, Segoe UI Emoji" y="0" x="0" style="white-space: pre;">1</text></g><g transform="translate(170 130) rotate(0 5.5615234375 11.5)" fill-opacity="0.9" stroke-opacity="0.9"><text direction="ltr" text-anchor="start" fill="#ffffff" font-size="20px" font-family="Helvetica, Segoe UI Emoji" y="0" x="0" style="white-space: pre;">5</text></g><g transform="translate(270 190) rotate(0 5.5615234375 11.5)" fill-opacity="0.9" stroke-opacity="0.9"><text direction="ltr" text-anchor="start" fill="#ffffff" font-size="20px" font-family="Helvetica, Segoe UI Emoji" y="0" x="0" style="white-space: pre;">7</text></g><g transform="translate(270 70) rotate(0 5.5615234375 11.5)" fill-opacity="0.9" stroke-opacity="0.9"><text direction="ltr" text-anchor="start" fill="#ffffff" font-size="20px" font-family="Helvetica, Segoe UI Emoji" y="0" x="0" style="white-space: pre;">6</text></g><g stroke-linecap="round"><g transform="translate(70 190) rotate(0 60 -60)" fill-opacity="0.9" stroke-opacity="0.9"><path fill="none" stroke-width="2" stroke="#ffffff" d="M0 0 C20 -20, 100 -100, 120 -120 M0 0 C20 -20, 100 -100, 120 -120"></path></g></g><mask></mask><g transform="translate(110 210) rotate(0 5.5615234375 11.5)" fill-opacity="0.9" stroke-opacity="0.9"><text direction="ltr" text-anchor="start" fill="#ffffff" font-size="20px" font-family="Helvetica, Segoe UI Emoji" y="0" x="0" style="white-space: pre;">4</text></g></svg>