<svg height="572.1999999999998" width="560" viewBox="0 0 560 572.1999999999998" xmlns="http://www.w3.org/2000/svg" version="1.1"><defs></defs> <rect fill="none" height="572.1999999999998" width="560" y="0" x="0"></rect><g transform="translate(10 10) rotate(0 30 30)" stroke-linecap="round" fill-opacity="0.9" stroke-opacity="0.9"><path fill="none" stroke-width="1" stroke="#ffffff" d="M15 0 M15 0 C22.85 0, 30.71 0, 45 0 M15 0 C25.4 0, 35.8 0, 45 0 M45 0 C55 0, 60 5, 60 15 M45 0 C55 0, 60 5, 60 15 M60 15 C60 26.04, 60 37.08, 60 45 M60 15 C60 24.98, 60 34.95, 60 45 M60 45 C60 55, 55 60, 45 60 M60 45 C60 55, 55 60, 45 60 M45 60 C37.07 60, 29.13 60, 15 60 M45 60 C35.13 60, 25.25 60, 15 60 M15 60 C5 60, 0 55, 0 45 M15 60 C5 60, 0 55, 0 45 M0 45 C0 37.91, 0 30.82, 0 15 M0 45 C0 37.17, 0 29.34, 0 15 M0 15 C0 5, 5 0, 15 0 M0 15 C0 5, 5 0, 15 0"></path></g><g transform="translate(130 10) rotate(0 30 30)" stroke-linecap="round" fill-opacity="0.9" stroke-opacity="0.9"><path fill="none" stroke-width="1" stroke="#ffffff" d="M15 0 M15 0 C23.03 0, 31.06 0, 45 0 M15 0 C22.15 0, 29.3 0, 45 0 M45 0 C55 0, 60 5, 60 15 M45 0 C55 0, 60 5, 60 15 M60 15 C60 23.74, 60 32.48, 60 45 M60 15 C60 22.11, 60 29.23, 60 45 M60 45 C60 55, 55 60, 45 60 M60 45 C60 55, 55 60, 45 60 M45 60 C35.93 60, 26.86 60, 15 60 M45 60 C34.27 60, 23.54 60, 15 60 M15 60 C5 60, 0 55, 0 45 M15 60 C5 60, 0 55, 0 45 M0 45 C0 35.15, 0 25.3, 0 15 M0 45 C0 37.81, 0 30.62, 0 15 M0 15 C0 5, 5 0, 15 0 M0 15 C0 5, 5 0, 15 0"></path></g><g transform="translate(250 10) rotate(0 30 30)" stroke-linecap="round" fill-opacity="0.9" stroke-opacity="0.9"><path fill="none" stroke-width="1" stroke="#ffffff" d="M15 0 M15 0 C23.63 0, 32.25 0, 45 0 M15 0 C21.09 0, 27.18 0, 45 0 M45 0 C55 0, 60 5, 60 15 M45 0 C55 0, 60 5, 60 15 M60 15 C60 24.12, 60 33.25, 60 45 M60 15 C60 26.23, 60 37.46, 60 45 M60 45 C60 55, 55 60, 45 60 M60 45 C60 55, 55 60, 45 60 M45 60 C34.95 60, 24.89 60, 15 60 M45 60 C33.95 60, 22.9 60, 15 60 M15 60 C5 60, 0 55, 0 45 M15 60 C5 60, 0 55, 0 45 M0 45 C0 36.57, 0 28.14, 0 15 M0 45 C0 36.68, 0 28.37, 0 15 M0 15 C0 5, 5 0, 15 0 M0 15 C0 5, 5 0, 15 0"></path></g><g transform="translate(30 50) rotate(0 9.337890625 16.09999999999991)" fill-opacity="0.9" stroke-opacity="0.9"><text direction="ltr" text-anchor="start" fill="#ffffff" font-size="28px" font-family="Helvetica, Segoe UI Emoji" y="0" x="0" style="white-space: pre;">A</text></g><g transform="translate(150 50) rotate(0 7.7861328125 16.09999999999991)" fill-opacity="0.9" stroke-opacity="0.9"><text direction="ltr" text-anchor="start" fill="#ffffff" font-size="28px" font-family="Helvetica, Segoe UI Emoji" y="0" x="0" style="white-space: pre;">1</text></g><g stroke-linecap="round"><g transform="translate(71 40) rotate(0 29 0)" fill-opacity="0.9" stroke-opacity="0.9"><path fill="none" stroke-width="2" stroke="#ffffff" d="M0 0 C9.67 0, 48.33 0, 58 0 M0 0 C9.67 0, 48.33 0, 58 0"></path></g><g transform="translate(71 40) rotate(0 29 0)" fill-opacity="0.9" stroke-opacity="0.9"><path fill="none" stroke-width="2" stroke="#ffffff" d="M30.75 9.92 C40.74 6.28, 50.73 2.65, 58 0 M30.75 9.92 C39.23 6.83, 47.72 3.74, 58 0"></path></g><g transform="translate(71 40) rotate(0 29 0)" fill-opacity="0.9" stroke-opacity="0.9"><path fill="none" stroke-width="2" stroke="#ffffff" d="M30.75 -9.92 C40.74 -6.28, 50.73 -2.65, 58 0 M30.75 -9.92 C39.23 -6.83, 47.72 -3.74, 58 0"></path></g></g><mask></mask><g stroke-linecap="round"><g transform="translate(191 39.99888260251555) rotate(0 29 0.00036409580957297294)" fill-opacity="0.9" stroke-opacity="0.9"><path fill="none" stroke-width="2" stroke="#ffffff" d="M0 0 C9.67 0, 48.33 0, 58 0 M0 0 C9.67 0, 48.33 0, 58 0"></path></g><g transform="translate(191 39.99888260251555) rotate(0 29 0.00036409580957297294)" fill-opacity="0.9" stroke-opacity="0.9"><path fill="none" stroke-width="2" stroke="#ffffff" d="M30.75 9.92 C39.05 6.9, 47.36 3.87, 58 0 M30.75 9.92 C36.74 7.74, 42.74 5.56, 58 0"></path></g><g transform="translate(191 39.99888260251555) rotate(0 29 0.00036409580957297294)" fill-opacity="0.9" stroke-opacity="0.9"><path fill="none" stroke-width="2" stroke="#ffffff" d="M30.75 -9.92 C39.05 -6.9, 47.36 -3.87, 58 0 M30.75 -9.92 C36.74 -7.74, 42.74 -5.56, 58 0"></path></g></g><mask></mask><g transform="translate(270 50) rotate(0 7.7861328125 16.09999999999991)" fill-opacity="0.9" stroke-opacity="0.9"><text direction="ltr" text-anchor="start" fill="#ffffff" font-size="28px" font-family="Helvetica, Segoe UI Emoji" y="0" x="0" style="white-space: pre;">2</text></g><g transform="translate(10 130) rotate(0 30 30)" stroke-linecap="round" fill-opacity="0.9" stroke-opacity="0.9"><path fill="none" stroke-width="1" stroke="#ffffff" d="M15 0 M15 0 C25.08 0, 35.17 0, 45 0 M15 0 C24.41 0, 33.83 0, 45 0 M45 0 C55 0, 60 5, 60 15 M45 0 C55 0, 60 5, 60 15 M60 15 C60 21.5, 60 28, 60 45 M60 15 C60 23.1, 60 31.21, 60 45 M60 45 C60 55, 55 60, 45 60 M60 45 C60 55, 55 60, 45 60 M45 60 C34.55 60, 24.11 60, 15 60 M45 60 C37.64 60, 30.27 60, 15 60 M15 60 C5 60, 0 55, 0 45 M15 60 C5 60, 0 55, 0 45 M0 45 C0 33, 0 21.01, 0 15 M0 45 C0 35.34, 0 25.67, 0 15 M0 15 C0 5, 5 0, 15 0 M0 15 C0 5, 5 0, 15 0"></path></g><g transform="translate(130 130) rotate(0 30 30)" stroke-linecap="round" fill-opacity="0.9" stroke-opacity="0.9"><path fill="none" stroke-width="1" stroke="#ffffff" d="M15 0 M15 0 C22.18 0, 29.36 0, 45 0 M15 0 C24.93 0, 34.86 0, 45 0 M45 0 C55 0, 60 5, 60 15 M45 0 C55 0, 60 5, 60 15 M60 15 C60 25.67, 60 36.35, 60 45 M60 15 C60 25.63, 60 36.26, 60 45 M60 45 C60 55, 55 60, 45 60 M60 45 C60 55, 55 60, 45 60 M45 60 C36.41 60, 27.81 60, 15 60 M45 60 C35.98 60, 26.97 60, 15 60 M15 60 C5 60, 0 55, 0 45 M15 60 C5 60, 0 55, 0 45 M0 45 C0 36.58, 0 28.17, 0 15 M0 45 C0 33.64, 0 22.28, 0 15 M0 15 C0 5, 5 0, 15 0 M0 15 C0 5, 5 0, 15 0"></path></g><g transform="translate(250 130) rotate(0 30 30)" stroke-linecap="round" fill-opacity="0.9" stroke-opacity="0.9"><path fill="none" stroke-width="1" stroke="#ffffff" d="M15 0 M15 0 C24.3 0, 33.59 0, 45 0 M15 0 C21.66 0, 28.33 0, 45 0 M45 0 C55 0, 60 5, 60 15 M45 0 C55 0, 60 5, 60 15 M60 15 C60 26.48, 60 37.97, 60 45 M60 15 C60 23.42, 60 31.84, 60 45 M60 45 C60 55, 55 60, 45 60 M60 45 C60 55, 55 60, 45 60 M45 60 C34.04 60, 23.08 60, 15 60 M45 60 C37.54 60, 30.08 60, 15 60 M15 60 C5 60, 0 55, 0 45 M15 60 C5 60, 0 55, 0 45 M0 45 C0 37.19, 0 29.38, 0 15 M0 45 C0 35.49, 0 25.97, 0 15 M0 15 C0 5, 5 0, 15 0 M0 15 C0 5, 5 0, 15 0"></path></g><g transform="translate(370 130) rotate(0 30 30)" stroke-linecap="round" fill-opacity="0.9" stroke-opacity="0.9"><path fill="none" stroke-width="1" stroke="#ffffff" d="M15 0 M15 0 C24.63 0, 34.26 0, 45 0 M15 0 C21.76 0, 28.52 0, 45 0 M45 0 C55 0, 60 5, 60 15 M45 0 C55 0, 60 5, 60 15 M60 15 C60 21.29, 60 27.59, 60 45 M60 15 C60 22.11, 60 29.22, 60 45 M60 45 C60 55, 55 60, 45 60 M60 45 C60 55, 55 60, 45 60 M45 60 C37 60, 28.99 60, 15 60 M45 60 C33.04 60, 21.09 60, 15 60 M15 60 C5 60, 0 55, 0 45 M15 60 C5 60, 0 55, 0 45 M0 45 C0 35.9, 0 26.79, 0 15 M0 45 C0 33.3, 0 21.61, 0 15 M0 15 C0 5, 5 0, 15 0 M0 15 C0 5, 5 0, 15 0"></path></g><g transform="translate(30 170) rotate(0 9.337890625 16.09999999999991)" fill-opacity="0.9" stroke-opacity="0.9"><text direction="ltr" text-anchor="start" fill="#ffffff" font-size="28px" font-family="Helvetica, Segoe UI Emoji" y="0" x="0" style="white-space: pre;">B</text></g><g transform="translate(150 170) rotate(0 7.7861328125 16.09999999999991)" fill-opacity="0.9" stroke-opacity="0.9"><text direction="ltr" text-anchor="start" fill="#ffffff" font-size="28px" font-family="Helvetica, Segoe UI Emoji" y="0" x="0" style="white-space: pre;">2</text></g><g transform="translate(270 170) rotate(0 7.7861328125 16.09999999999991)" fill-opacity="0.9" stroke-opacity="0.9"><text direction="ltr" text-anchor="start" fill="#ffffff" font-size="28px" font-family="Helvetica, Segoe UI Emoji" y="0" x="0" style="white-space: pre;">3</text></g><g transform="translate(390 170) rotate(0 7.7861328125 16.09999999999991)" fill-opacity="0.9" stroke-opacity="0.9"><text direction="ltr" text-anchor="start" fill="#ffffff" font-size="28px" font-family="Helvetica, Segoe UI Emoji" y="0" x="0" style="white-space: pre;">4</text></g><g stroke-linecap="round"><g transform="translate(71 157.58641855266978) rotate(0 29 -0.5468517167651044)" fill-opacity="0.9" stroke-opacity="0.9"><path fill="none" stroke-width="2" stroke="#ffffff" d="M0 0 C9.67 -0.18, 48.33 -0.91, 58 -1.09 M0 0 C9.67 -0.18, 48.33 -0.91, 58 -1.09"></path></g><g transform="translate(71 157.58641855266978) rotate(0 29 -0.5468517167651044)" fill-opacity="0.9" stroke-opacity="0.9"><path fill="none" stroke-width="2" stroke="#ffffff" d="M30.94 9.34 C39.9 5.89, 48.85 2.43, 58 -1.09 M30.94 9.34 C37.75 6.71, 44.56 4.09, 58 -1.09"></path></g><g transform="translate(71 157.58641855266978) rotate(0 29 -0.5468517167651044)" fill-opacity="0.9" stroke-opacity="0.9"><path fill="none" stroke-width="2" stroke="#ffffff" d="M30.56 -10.5 C39.64 -7.39, 48.73 -4.27, 58 -1.09 M30.56 -10.5 C37.47 -8.13, 44.37 -5.77, 58 -1.09"></path></g></g><mask></mask><g stroke-linecap="round"><g transform="translate(191 159.99999879185907) rotate(0 29 3.936638677259907e-7)" fill-opacity="0.9" stroke-opacity="0.9"><path fill="none" stroke-width="2" stroke="#ffffff" d="M0 0 C9.67 0, 48.33 0, 58 0 M0 0 C9.67 0, 48.33 0, 58 0"></path></g><g transform="translate(191 159.99999879185907) rotate(0 29 3.936638677259907e-7)" fill-opacity="0.9" stroke-opacity="0.9"><path fill="none" stroke-width="2" stroke="#ffffff" d="M30.75 9.92 C36.8 7.72, 42.86 5.51, 58 0 M30.75 9.92 C40.08 6.52, 49.41 3.13, 58 0"></path></g><g transform="translate(191 159.99999879185907) rotate(0 29 3.936638677259907e-7)" fill-opacity="0.9" stroke-opacity="0.9"><path fill="none" stroke-width="2" stroke="#ffffff" d="M30.75 -9.92 C36.8 -7.72, 42.86 -5.51, 58 0 M30.75 -9.92 C40.08 -6.52, 49.41 -3.13, 58 0"></path></g></g><mask></mask><g stroke-linecap="round"><g transform="translate(311 160) rotate(0 29 0)" fill-opacity="0.9" stroke-opacity="0.9"><path fill="none" stroke-width="2" stroke="#ffffff" d="M0 0 C9.67 0, 48.33 0, 58 0 M0 0 C9.67 0, 48.33 0, 58 0"></path></g><g transform="translate(311 160) rotate(0 29 0)" fill-opacity="0.9" stroke-opacity="0.9"><path fill="none" stroke-width="2" stroke="#ffffff" d="M30.75 9.92 C36.89 7.68, 43.03 5.45, 58 0 M30.75 9.92 C38.43 7.12, 46.12 4.33, 58 0"></path></g><g transform="translate(311 160) rotate(0 29 0)" fill-opacity="0.9" stroke-opacity="0.9"><path fill="none" stroke-width="2" stroke="#ffffff" d="M30.75 -9.92 C36.89 -7.68, 43.03 -5.45, 58 0 M30.75 -9.92 C38.43 -7.12, 46.12 -4.33, 58 0"></path></g></g><mask></mask><g transform="translate(10 250) rotate(0 30 30)" stroke-linecap="round" fill-opacity="0.9" stroke-opacity="0.9"><path fill="none" stroke-width="1" stroke="#ffffff" d="M15 0 M15 0 C21.99 0, 28.98 0, 45 0 M15 0 C25.7 0, 36.4 0, 45 0 M45 0 C55 0, 60 5, 60 15 M45 0 C55 0, 60 5, 60 15 M60 15 C60 24.88, 60 34.75, 60 45 M60 15 C60 24.53, 60 34.06, 60 45 M60 45 C60 55, 55 60, 45 60 M60 45 C60 55, 55 60, 45 60 M45 60 C33.2 60, 21.41 60, 15 60 M45 60 C37.79 60, 30.58 60, 15 60 M15 60 C5 60, 0 55, 0 45 M15 60 C5 60, 0 55, 0 45 M0 45 C0 36.1, 0 27.2, 0 15 M0 45 C0 33.98, 0 22.95, 0 15 M0 15 C0 5, 5 0, 15 0 M0 15 C0 5, 5 0, 15 0"></path></g><g transform="translate(130 250) rotate(0 30 30)" stroke-linecap="round" fill-opacity="0.9" stroke-opacity="0.9"><path fill="none" stroke-width="1" stroke="#ffffff" d="M15 0 M15 0 C21.57 0, 28.15 0, 45 0 M15 0 C26.34 0, 37.68 0, 45 0 M45 0 C55 0, 60 5, 60 15 M45 0 C55 0, 60 5, 60 15 M60 15 C60 22.51, 60 30.02, 60 45 M60 15 C60 24.29, 60 33.58, 60 45 M60 45 C60 55, 55 60, 45 60 M60 45 C60 55, 55 60, 45 60 M45 60 C37.59 60, 30.17 60, 15 60 M45 60 C34.23 60, 23.45 60, 15 60 M15 60 C5 60, 0 55, 0 45 M15 60 C5 60, 0 55, 0 45 M0 45 C0 33.18, 0 21.36, 0 15 M0 45 C0 37.86, 0 30.73, 0 15 M0 15 C0 5, 5 0, 15 0 M0 15 C0 5, 5 0, 15 0"></path></g><g transform="translate(250 250) rotate(0 30 30)" stroke-linecap="round" fill-opacity="0.9" stroke-opacity="0.9"><path fill="none" stroke-width="1" stroke="#ffffff" d="M15 0 M15 0 C23.03 0, 31.06 0, 45 0 M15 0 C24.4 0, 33.79 0, 45 0 M45 0 C55 0, 60 5, 60 15 M45 0 C55 0, 60 5, 60 15 M60 15 C60 21.68, 60 28.36, 60 45 M60 15 C60 22.17, 60 29.35, 60 45 M60 45 C60 55, 55 60, 45 60 M60 45 C60 55, 55 60, 45 60 M45 60 C35.66 60, 26.33 60, 15 60 M45 60 C33.07 60, 21.14 60, 15 60 M15 60 C5 60, 0 55, 0 45 M15 60 C5 60, 0 55, 0 45 M0 45 C0 37.09, 0 29.18, 0 15 M0 45 C0 38.54, 0 32.08, 0 15 M0 15 C0 5, 5 0, 15 0 M0 15 C0 5, 5 0, 15 0"></path></g><g transform="translate(370 250) rotate(0 30 30)" stroke-linecap="round" fill-opacity="0.9" stroke-opacity="0.9"><path fill="none" stroke-width="1" stroke="#ffffff" d="M15 0 M15 0 C26.1 0, 37.2 0, 45 0 M15 0 C26.96 0, 38.93 0, 45 0 M45 0 C55 0, 60 5, 60 15 M45 0 C55 0, 60 5, 60 15 M60 15 C60 25.86, 60 36.73, 60 45 M60 15 C60 21.58, 60 28.17, 60 45 M60 45 C60 55, 55 60, 45 60 M60 45 C60 55, 55 60, 45 60 M45 60 C33.62 60, 22.25 60, 15 60 M45 60 C33.23 60, 21.46 60, 15 60 M15 60 C5 60, 0 55, 0 45 M15 60 C5 60, 0 55, 0 45 M0 45 C0 37.71, 0 30.42, 0 15 M0 45 C0 38.27, 0 31.54, 0 15 M0 15 C0 5, 5 0, 15 0 M0 15 C0 5, 5 0, 15 0"></path></g><g transform="translate(490 250) rotate(0 30 30)" stroke-linecap="round" fill-opacity="0.9" stroke-opacity="0.9"><path fill="none" stroke-width="1" stroke="#ffffff" d="M15 0 M15 0 C24.93 0, 34.86 0, 45 0 M15 0 C22.27 0, 29.54 0, 45 0 M45 0 C55 0, 60 5, 60 15 M45 0 C55 0, 60 5, 60 15 M60 15 C60 22.3, 60 29.6, 60 45 M60 15 C60 21.78, 60 28.55, 60 45 M60 45 C60 55, 55 60, 45 60 M60 45 C60 55, 55 60, 45 60 M45 60 C38.47 60, 31.94 60, 15 60 M45 60 C36.69 60, 28.38 60, 15 60 M15 60 C5 60, 0 55, 0 45 M15 60 C5 60, 0 55, 0 45 M0 45 C0 33.7, 0 22.4, 0 15 M0 45 C0 35.35, 0 25.69, 0 15 M0 15 C0 5, 5 0, 15 0 M0 15 C0 5, 5 0, 15 0"></path></g><g transform="translate(30 290) rotate(0 10.1103515625 16.09999999999991)" fill-opacity="0.9" stroke-opacity="0.9"><text direction="ltr" text-anchor="start" fill="#ffffff" font-size="28px" font-family="Helvetica, Segoe UI Emoji" y="0" x="0" style="white-space: pre;">C</text></g><g transform="translate(150 290) rotate(0 7.7861328125 16.09999999999991)" fill-opacity="0.9" stroke-opacity="0.9"><text direction="ltr" text-anchor="start" fill="#ffffff" font-size="28px" font-family="Helvetica, Segoe UI Emoji" y="0" x="0" style="white-space: pre;">1</text></g><g transform="translate(270 290) rotate(0 7.7861328125 16.09999999999991)" fill-opacity="0.9" stroke-opacity="0.9"><text direction="ltr" text-anchor="start" fill="#ffffff" font-size="28px" font-family="Helvetica, Segoe UI Emoji" y="0" x="0" style="white-space: pre;">3</text></g><g transform="translate(390 290) rotate(0 7.7861328125 16.09999999999991)" fill-opacity="0.9" stroke-opacity="0.9"><text direction="ltr" text-anchor="start" fill="#ffffff" font-size="28px" font-family="Helvetica, Segoe UI Emoji" y="0" x="0" style="white-space: pre;">5</text></g><g transform="translate(510 290) rotate(0 7.7861328125 16.09999999999991)" fill-opacity="0.9" stroke-opacity="0.9"><text direction="ltr" text-anchor="start" fill="#ffffff" font-size="28px" font-family="Helvetica, Segoe UI Emoji" y="0" x="0" style="white-space: pre;">6</text></g><g stroke-linecap="round"><g transform="translate(71 280) rotate(0 29 0)" fill-opacity="0.9" stroke-opacity="0.9"><path fill="none" stroke-width="2" stroke="#ffffff" d="M0 0 C9.67 0, 48.33 0, 58 0 M0 0 C9.67 0, 48.33 0, 58 0"></path></g><g transform="translate(71 280) rotate(0 29 0)" fill-opacity="0.9" stroke-opacity="0.9"><path fill="none" stroke-width="2" stroke="#ffffff" d="M30.75 9.92 C41.62 5.96, 52.48 2.01, 58 0 M30.75 9.92 C39.05 6.9, 47.36 3.87, 58 0"></path></g><g transform="translate(71 280) rotate(0 29 0)" fill-opacity="0.9" stroke-opacity="0.9"><path fill="none" stroke-width="2" stroke="#ffffff" d="M30.75 -9.92 C41.62 -5.96, 52.48 -2.01, 58 0 M30.75 -9.92 C39.05 -6.9, 47.36 -3.87, 58 0"></path></g></g><mask></mask><g stroke-linecap="round"><g transform="translate(191 280) rotate(0 29 0)" fill-opacity="0.9" stroke-opacity="0.9"><path fill="none" stroke-width="2" stroke="#ffffff" d="M0 0 C9.67 0, 48.33 0, 58 0 M0 0 C9.67 0, 48.33 0, 58 0"></path></g><g transform="translate(191 280) rotate(0 29 0)" fill-opacity="0.9" stroke-opacity="0.9"><path fill="none" stroke-width="2" stroke="#ffffff" d="M30.75 9.92 C37.35 7.52, 43.96 5.11, 58 0 M30.75 9.92 C39.72 6.65, 48.69 3.39, 58 0"></path></g><g transform="translate(191 280) rotate(0 29 0)" fill-opacity="0.9" stroke-opacity="0.9"><path fill="none" stroke-width="2" stroke="#ffffff" d="M30.75 -9.92 C37.35 -7.52, 43.96 -5.11, 58 0 M30.75 -9.92 C39.72 -6.65, 48.69 -3.39, 58 0"></path></g></g><mask></mask><g stroke-linecap="round"><g transform="translate(311 280) rotate(0 29 0)" fill-opacity="0.9" stroke-opacity="0.9"><path fill="none" stroke-width="2" stroke="#ffffff" d="M0 0 C9.67 0, 48.33 0, 58 0 M0 0 C9.67 0, 48.33 0, 58 0"></path></g><g transform="translate(311 280) rotate(0 29 0)" fill-opacity="0.9" stroke-opacity="0.9"><path fill="none" stroke-width="2" stroke="#ffffff" d="M30.75 9.92 C38.33 7.16, 45.91 4.4, 58 0 M30.75 9.92 C37.57 7.44, 44.39 4.95, 58 0"></path></g><g transform="translate(311 280) rotate(0 29 0)" fill-opacity="0.9" stroke-opacity="0.9"><path fill="none" stroke-width="2" stroke="#ffffff" d="M30.75 -9.92 C38.33 -7.16, 45.91 -4.4, 58 0 M30.75 -9.92 C37.57 -7.44, 44.39 -4.95, 58 0"></path></g></g><mask></mask><g stroke-linecap="round"><g transform="translate(431 280) rotate(0 29 0)" fill-opacity="0.9" stroke-opacity="0.9"><path fill="none" stroke-width="2" stroke="#ffffff" d="M0 0 C9.67 0, 48.33 0, 58 0 M0 0 C9.67 0, 48.33 0, 58 0"></path></g><g transform="translate(431 280) rotate(0 29 0)" fill-opacity="0.9" stroke-opacity="0.9"><path fill="none" stroke-width="2" stroke="#ffffff" d="M30.75 9.92 C36.53 7.81, 42.31 5.71, 58 0 M30.75 9.92 C36.82 7.71, 42.88 5.5, 58 0"></path></g><g transform="translate(431 280) rotate(0 29 0)" fill-opacity="0.9" stroke-opacity="0.9"><path fill="none" stroke-width="2" stroke="#ffffff" d="M30.75 -9.92 C36.53 -7.81, 42.31 -5.71, 58 0 M30.75 -9.92 C36.82 -7.71, 42.88 -5.5, 58 0"></path></g></g><mask></mask><g transform="translate(10 370) rotate(0 30 30)" stroke-linecap="round" fill-opacity="0.9" stroke-opacity="0.9"><path fill="none" stroke-width="1" stroke="#ffffff" d="M15 0 M15 0 C25.02 0, 35.04 0, 45 0 M15 0 C25.14 0, 35.27 0, 45 0 M45 0 C55 0, 60 5, 60 15 M45 0 C55 0, 60 5, 60 15 M60 15 C60 22.96, 60 30.91, 60 45 M60 15 C60 26.77, 60 38.53, 60 45 M60 45 C60 55, 55 60, 45 60 M60 45 C60 55, 55 60, 45 60 M45 60 C34.79 60, 24.58 60, 15 60 M45 60 C37.28 60, 29.55 60, 15 60 M15 60 C5 60, 0 55, 0 45 M15 60 C5 60, 0 55, 0 45 M0 45 C0 35.84, 0 26.67, 0 15 M0 45 C0 38.33, 0 31.66, 0 15 M0 15 C0 5, 5 0, 15 0 M0 15 C0 5, 5 0, 15 0"></path></g><g transform="translate(130 370) rotate(0 30 30)" stroke-linecap="round" fill-opacity="0.9" stroke-opacity="0.9"><path fill="none" stroke-width="1" stroke="#ffffff" d="M15 0 M15 0 C22.82 0, 30.64 0, 45 0 M15 0 C25.1 0, 35.2 0, 45 0 M45 0 C55 0, 60 5, 60 15 M45 0 C55 0, 60 5, 60 15 M60 15 C60 21.86, 60 28.73, 60 45 M60 15 C60 24.6, 60 34.2, 60 45 M60 45 C60 55, 55 60, 45 60 M60 45 C60 55, 55 60, 45 60 M45 60 C38.77 60, 32.53 60, 15 60 M45 60 C38.7 60, 32.4 60, 15 60 M15 60 C5 60, 0 55, 0 45 M15 60 C5 60, 0 55, 0 45 M0 45 C0 34.81, 0 24.63, 0 15 M0 45 C0 35.78, 0 26.56, 0 15 M0 15 C0 5, 5 0, 15 0 M0 15 C0 5, 5 0, 15 0"></path></g><g transform="translate(250 370) rotate(0 30 30)" stroke-linecap="round" fill-opacity="0.9" stroke-opacity="0.9"><path fill="none" stroke-width="1" stroke="#ffffff" d="M15 0 M15 0 C25.59 0, 36.17 0, 45 0 M15 0 C25.22 0, 35.44 0, 45 0 M45 0 C55 0, 60 5, 60 15 M45 0 C55 0, 60 5, 60 15 M60 15 C60 22.85, 60 30.7, 60 45 M60 15 C60 23.25, 60 31.51, 60 45 M60 45 C60 55, 55 60, 45 60 M60 45 C60 55, 55 60, 45 60 M45 60 C35.36 60, 25.72 60, 15 60 M45 60 C35.27 60, 25.53 60, 15 60 M15 60 C5 60, 0 55, 0 45 M15 60 C5 60, 0 55, 0 45 M0 45 C0 34.71, 0 24.41, 0 15 M0 45 C0 36.15, 0 27.29, 0 15 M0 15 C0 5, 5 0, 15 0 M0 15 C0 5, 5 0, 15 0"></path></g><g transform="translate(370 370) rotate(0 30 30)" stroke-linecap="round" fill-opacity="0.9" stroke-opacity="0.9"><path fill="none" stroke-width="1" stroke="#ffffff" d="M15 0 M15 0 C22.29 0, 29.59 0, 45 0 M15 0 C25.82 0, 36.64 0, 45 0 M45 0 C55 0, 60 5, 60 15 M45 0 C55 0, 60 5, 60 15 M60 15 C60 23.25, 60 31.5, 60 45 M60 15 C60 22.66, 60 30.33, 60 45 M60 45 C60 55, 55 60, 45 60 M60 45 C60 55, 55 60, 45 60 M45 60 C38.43 60, 31.87 60, 15 60 M45 60 C33.69 60, 22.39 60, 15 60 M15 60 C5 60, 0 55, 0 45 M15 60 C5 60, 0 55, 0 45 M0 45 C0 38.06, 0 31.13, 0 15 M0 45 C0 34.41, 0 23.81, 0 15 M0 15 C0 5, 5 0, 15 0 M0 15 C0 5, 5 0, 15 0"></path></g><g transform="translate(30 410) rotate(0 10.1103515625 16.09999999999991)" fill-opacity="0.9" stroke-opacity="0.9"><text direction="ltr" text-anchor="start" fill="#ffffff" font-size="28px" font-family="Helvetica, Segoe UI Emoji" y="0" x="0" style="white-space: pre;">D</text></g><g transform="translate(150 410) rotate(0 7.7861328125 16.09999999999991)" fill-opacity="0.9" stroke-opacity="0.9"><text direction="ltr" text-anchor="start" fill="#ffffff" font-size="28px" font-family="Helvetica, Segoe UI Emoji" y="0" x="0" style="white-space: pre;">4</text></g><g transform="translate(270 410) rotate(0 7.7861328125 16.09999999999991)" fill-opacity="0.9" stroke-opacity="0.9"><text direction="ltr" text-anchor="start" fill="#ffffff" font-size="28px" font-family="Helvetica, Segoe UI Emoji" y="0" x="0" style="white-space: pre;">5</text></g><g transform="translate(390 410) rotate(0 7.7861328125 16.09999999999991)" fill-opacity="0.9" stroke-opacity="0.9"><text direction="ltr" text-anchor="start" fill="#ffffff" font-size="28px" font-family="Helvetica, Segoe UI Emoji" y="0" x="0" style="white-space: pre;">7</text></g><g stroke-linecap="round"><g transform="translate(71 400) rotate(0 29 0)" fill-opacity="0.9" stroke-opacity="0.9"><path fill="none" stroke-width="2" stroke="#ffffff" d="M0 0 C9.67 0, 48.33 0, 58 0 M0 0 C9.67 0, 48.33 0, 58 0"></path></g><g transform="translate(71 400) rotate(0 29 0)" fill-opacity="0.9" stroke-opacity="0.9"><path fill="none" stroke-width="2" stroke="#ffffff" d="M30.75 9.92 C39.92 6.58, 49.1 3.24, 58 0 M30.75 9.92 C37.52 7.46, 44.29 4.99, 58 0"></path></g><g transform="translate(71 400) rotate(0 29 0)" fill-opacity="0.9" stroke-opacity="0.9"><path fill="none" stroke-width="2" stroke="#ffffff" d="M30.75 -9.92 C39.92 -6.58, 49.1 -3.24, 58 0 M30.75 -9.92 C37.52 -7.46, 44.29 -4.99, 58 0"></path></g></g><mask></mask><g stroke-linecap="round"><g transform="translate(191 400) rotate(0 29 0)" fill-opacity="0.9" stroke-opacity="0.9"><path fill="none" stroke-width="2" stroke="#ffffff" d="M0 0 C9.67 0, 48.33 0, 58 0 M0 0 C9.67 0, 48.33 0, 58 0"></path></g><g transform="translate(191 400) rotate(0 29 0)" fill-opacity="0.9" stroke-opacity="0.9"><path fill="none" stroke-width="2" stroke="#ffffff" d="M30.75 9.92 C40.03 6.54, 49.32 3.16, 58 0 M30.75 9.92 C40.7 6.3, 50.64 2.68, 58 0"></path></g><g transform="translate(191 400) rotate(0 29 0)" fill-opacity="0.9" stroke-opacity="0.9"><path fill="none" stroke-width="2" stroke="#ffffff" d="M30.75 -9.92 C40.03 -6.54, 49.32 -3.16, 58 0 M30.75 -9.92 C40.7 -6.3, 50.64 -2.68, 58 0"></path></g></g><mask></mask><g stroke-linecap="round"><g transform="translate(311 400) rotate(0 29 0)" fill-opacity="0.9" stroke-opacity="0.9"><path fill="none" stroke-width="2" stroke="#ffffff" d="M0 0 C9.67 0, 48.33 0, 58 0 M0 0 C9.67 0, 48.33 0, 58 0"></path></g><g transform="translate(311 400) rotate(0 29 0)" fill-opacity="0.9" stroke-opacity="0.9"><path fill="none" stroke-width="2" stroke="#ffffff" d="M30.75 9.92 C40.58 6.34, 50.4 2.77, 58 0 M30.75 9.92 C41.54 5.99, 52.34 2.06, 58 0"></path></g><g transform="translate(311 400) rotate(0 29 0)" fill-opacity="0.9" stroke-opacity="0.9"><path fill="none" stroke-width="2" stroke="#ffffff" d="M30.75 -9.92 C40.58 -6.34, 50.4 -2.77, 58 0 M30.75 -9.92 C41.54 -5.99, 52.34 -2.06, 58 0"></path></g></g><mask></mask><g transform="translate(10 490) rotate(0 30 30)" stroke-linecap="round" fill-opacity="0.9" stroke-opacity="0.9"><path fill="none" stroke-width="1" stroke="#ffffff" d="M15 0 M15 0 C25.22 0, 35.43 0, 45 0 M15 0 C25.59 0, 36.18 0, 45 0 M45 0 C55 0, 60 5, 60 15 M45 0 C55 0, 60 5, 60 15 M60 15 C60 21.26, 60 27.51, 60 45 M60 15 C60 26.36, 60 37.72, 60 45 M60 45 C60 55, 55 60, 45 60 M60 45 C60 55, 55 60, 45 60 M45 60 C34.95 60, 24.89 60, 15 60 M45 60 C38.66 60, 32.32 60, 15 60 M15 60 C5 60, 0 55, 0 45 M15 60 C5 60, 0 55, 0 45 M0 45 C0 33.4, 0 21.81, 0 15 M0 45 C0 36.78, 0 28.57, 0 15 M0 15 C0 5, 5 0, 15 0 M0 15 C0 5, 5 0, 15 0"></path></g><g transform="translate(130 490) rotate(0 30 30)" stroke-linecap="round" fill-opacity="0.9" stroke-opacity="0.9"><path fill="none" stroke-width="1" stroke="#ffffff" d="M15 0 M15 0 C26.29 0, 37.58 0, 45 0 M15 0 C24.51 0, 34.02 0, 45 0 M45 0 C55 0, 60 5, 60 15 M45 0 C55 0, 60 5, 60 15 M60 15 C60 22.92, 60 30.84, 60 45 M60 15 C60 26.99, 60 38.97, 60 45 M60 45 C60 55, 55 60, 45 60 M60 45 C60 55, 55 60, 45 60 M45 60 C37.8 60, 30.6 60, 15 60 M45 60 C34.12 60, 23.25 60, 15 60 M15 60 C5 60, 0 55, 0 45 M15 60 C5 60, 0 55, 0 45 M0 45 C0 35.73, 0 26.46, 0 15 M0 45 C0 37.08, 0 29.16, 0 15 M0 15 C0 5, 5 0, 15 0 M0 15 C0 5, 5 0, 15 0"></path></g><g transform="translate(250 490) rotate(0 30 30)" stroke-linecap="round" fill-opacity="0.9" stroke-opacity="0.9"><path fill="none" stroke-width="1" stroke="#ffffff" d="M15 0 M15 0 C26.6 0, 38.19 0, 45 0 M15 0 C24.76 0, 34.53 0, 45 0 M45 0 C55 0, 60 5, 60 15 M45 0 C55 0, 60 5, 60 15 M60 15 C60 25.67, 60 36.33, 60 45 M60 15 C60 23.12, 60 31.24, 60 45 M60 45 C60 55, 55 60, 45 60 M60 45 C60 55, 55 60, 45 60 M45 60 C37.87 60, 30.73 60, 15 60 M45 60 C37.71 60, 30.42 60, 15 60 M15 60 C5 60, 0 55, 0 45 M15 60 C5 60, 0 55, 0 45 M0 45 C0 35.28, 0 25.57, 0 15 M0 45 C0 36.77, 0 28.54, 0 15 M0 15 C0 5, 5 0, 15 0 M0 15 C0 5, 5 0, 15 0"></path></g><g transform="translate(30 530) rotate(0 9.337890625 16.09999999999991)" fill-opacity="0.9" stroke-opacity="0.9"><text direction="ltr" text-anchor="start" fill="#ffffff" font-size="28px" font-family="Helvetica, Segoe UI Emoji" y="0" x="0" style="white-space: pre;">E</text></g><g transform="translate(150 530) rotate(0 7.7861328125 16.09999999999991)" fill-opacity="0.9" stroke-opacity="0.9"><text direction="ltr" text-anchor="start" fill="#ffffff" font-size="28px" font-family="Helvetica, Segoe UI Emoji" y="0" x="0" style="white-space: pre;">6</text></g><g transform="translate(270 530) rotate(0 7.7861328125 16.09999999999991)" fill-opacity="0.9" stroke-opacity="0.9"><text direction="ltr" text-anchor="start" fill="#ffffff" font-size="28px" font-family="Helvetica, Segoe UI Emoji" y="0" x="0" style="white-space: pre;">7</text></g><g stroke-linecap="round"><g transform="translate(71 520) rotate(0 29 0)" fill-opacity="0.9" stroke-opacity="0.9"><path fill="none" stroke-width="2" stroke="#ffffff" d="M0 0 C9.67 0, 48.33 0, 58 0 M0 0 C9.67 0, 48.33 0, 58 0"></path></g><g transform="translate(71 520) rotate(0 29 0)" fill-opacity="0.9" stroke-opacity="0.9"><path fill="none" stroke-width="2" stroke="#ffffff" d="M30.75 9.92 C36.98 7.65, 43.22 5.38, 58 0 M30.75 9.92 C39.14 6.87, 47.53 3.81, 58 0"></path></g><g transform="translate(71 520) rotate(0 29 0)" fill-opacity="0.9" stroke-opacity="0.9"><path fill="none" stroke-width="2" stroke="#ffffff" d="M30.75 -9.92 C36.98 -7.65, 43.22 -5.38, 58 0 M30.75 -9.92 C39.14 -6.87, 47.53 -3.81, 58 0"></path></g></g><mask></mask><g stroke-linecap="round"><g transform="translate(191 520) rotate(0 29 0)" fill-opacity="0.9" stroke-opacity="0.9"><path fill="none" stroke-width="2" stroke="#ffffff" d="M0 0 C9.67 0, 48.33 0, 58 0 M0 0 C9.67 0, 48.33 0, 58 0"></path></g><g transform="translate(191 520) rotate(0 29 0)" fill-opacity="0.9" stroke-opacity="0.9"><path fill="none" stroke-width="2" stroke="#ffffff" d="M30.75 9.92 C40.37 6.42, 49.98 2.92, 58 0 M30.75 9.92 C40.63 6.32, 50.52 2.72, 58 0"></path></g><g transform="translate(191 520) rotate(0 29 0)" fill-opacity="0.9" stroke-opacity="0.9"><path fill="none" stroke-width="2" stroke="#ffffff" d="M30.75 -9.92 C40.37 -6.42, 49.98 -2.92, 58 0 M30.75 -9.92 C40.63 -6.32, 50.52 -2.72, 58 0"></path></g></g><mask></mask></svg>